<svg width="24" height="24" viewBox="0 0 24 24" fill="none" xmlns="http://www.w3.org/2000/svg">
<path d="M18.7578 9.99977H5.25315C3.887 9.99977 2.7793 8.78978 2.7793 7.31978V4.68977C2.7793 3.20977 3.89623 2.00977 5.25315 2.00977H18.7578C20.1239 2.00977 21.2316 3.21977 21.2316 4.68977V7.31978C21.2316 8.78978 20.1147 9.99977 18.7578 9.99977Z" stroke="#000" stroke-width="1.5" stroke-linecap="round" stroke-linejoin="round"/>
<path d="M18.7578 21.9998H5.25315C3.887 21.9998 2.7793 20.7898 2.7793 19.3198V16.6898C2.7793 15.2098 3.89623 14.0098 5.25315 14.0098H18.7578C20.1239 14.0098 21.2316 15.2198 21.2316 16.6898V19.3198C21.2316 20.7898 20.1147 21.9998 18.7578 21.9998Z" stroke="#000" stroke-width="1.5" stroke-linecap="round" stroke-linejoin="round"/>
<path d="M6.46289 5V7" stroke="#000" stroke-width="1.5" stroke-linecap="round" stroke-linejoin="round"/>
<path d="M10.1543 5V7" stroke="#000" stroke-width="1.5" stroke-linecap="round" stroke-linejoin="round"/>
<path d="M6.46289 17V19" stroke="#000" stroke-width="1.5" stroke-linecap="round" stroke-linejoin="round"/>
<path d="M10.1543 17V19" stroke="#000" stroke-width="1.5" stroke-linecap="round" stroke-linejoin="round"/>
<path d="M13.8477 6H17.54" stroke="#000" stroke-width="1.5" stroke-linecap="round" stroke-linejoin="round"/>
<path d="M13.8477 18H17.54" stroke="#000" stroke-width="1.5" stroke-linecap="round" stroke-linejoin="round"/>
</svg>
