<svg width="23" height="24" viewBox="0 0 23 24" fill="none" xmlns="http://www.w3.org/2000/svg">
<path d="M8 22H14C19 22 21 20 21 15V9C21 4 19 2 14 2H8C3 2 1 4 1 9V15C1 20 3 22 8 22Z" stroke="#BDBDBD" stroke-width="1.5" stroke-linecap="round" stroke-linejoin="round"/>
<path d="M11 15.5C12.933 15.5 14.5 13.933 14.5 12C14.5 10.067 12.933 8.5 11 8.5C9.067 8.5 7.5 10.067 7.5 12C7.5 13.933 9.067 15.5 11 15.5Z" stroke="#BDBDBD" stroke-width="1.5" stroke-linecap="round" stroke-linejoin="round"/>
<path d="M16.6361 7H16.6477" stroke="#BDBDBD" stroke-width="2" stroke-linecap="round" stroke-linejoin="round"/>
</svg>
