<?xml version="1.0" encoding="utf-8"?>
<!-- Generator: Adobe Illustrator 26.5.0, SVG Export Plug-In . SVG Version: 6.00 Build 0)  -->
<svg version="1.1" id="Layer_1" xmlns="http://www.w3.org/2000/svg" xmlns:xlink="http://www.w3.org/1999/xlink" x="0px" y="0px"
	 viewBox="0 0 300 300" style="enable-background:new 0 0 300 300;" xml:space="preserve">
<style type="text/css">
	.st0{fill:#3E256B;}
	.st1{display:none;fill-rule:evenodd;clip-rule:evenodd;fill:#FFFFFF;}
	.st2{display:none;fill:#FFFFFF;}
	.st3{display:none;}
	.st4{display:inline;fill:#FFFFFF;}
	.st5{fill:#FFFFFF;}
	.st6{fill:#F05E22;}
</style>
<path class="st0" d="M150,300L150,300c82.8,0,150-67.2,150-150l0,0C300,67.2,232.8,0,150,0l0,0C67.2,0,0,67.2,0,150l0,0
	C0,232.8,67.2,300,150,300z"/>
<path class="st1" d="M222.9,186.5c0,11.3,0.3,30.5,0,31.9c-0.1,0.4-0.2,0.6-0.4,1.2c-0.1,0.2-0.6,1-0.7,1.1
	c-0.4,0.5-1.1,1.1-1.2,1.1c-0.1,0.1-0.7,0.4-1.2,0.6c-0.1,0.1-0.7,0.2-1.5,0.3c-0.2,0-0.9,0-1.6-0.1c-0.3-0.1-1-0.2-1.5-0.6
	l-1.2-0.9l-1.6-1.5l-3.5-3.2l-5.3-4.9l-9.1-8.3l-6.5-6l-1.6-1.4l-1.9-1.8l-1.3-1.1l-1.1-0.8l-1.8-1c-0.1-0.1-0.2-0.1-0.4-0.2
	l-2.4-0.9c-0.9-0.3-1.8-0.5-3.1-0.6l-1.5-0.1v-3.6V183l0,0c0-1.4,1.1-2.5,2.5-2.5h8.9H196h16.7h7.6c1.4,0,2.5,1.1,2.5,2.5v2.6
	L222.9,186.5L222.9,186.5z"/>
<path class="st1" d="M213.4,189.4H74.6c-5.2,0-9.5-4.2-9.5-9.5V83.1c0-5.2,4.2-9.5,9.5-9.5h138.8c5.2,0,9.5,4.2,9.5,9.5v96.8
	C222.9,185.1,218.6,189.4,213.4,189.4z"/>
<path class="st2" d="M234.2,71"/>
<circle class="st2" cx="121.8" cy="130.6" r="5.9"/>
<circle class="st2" cx="145" cy="130.6" r="5.9"/>
<circle class="st2" cx="168.2" cy="130.6" r="5.9"/>
<path class="st2" d="M242,119.3v80.5c-3.8-8.8-9.2-16.9-16.2-23.8c-10-10-22.3-16.9-35.6-20.1v-36c0-14.2,11.2-26.1,25.4-26.4
	c7.4-0.2,14,2.8,18.8,7.6C239.1,105.7,242,112.2,242,119.3z"/>
<g class="st3">
	<path class="st4" d="M242,229.7v3.9c0,3.4-2.7,6.1-6.1,6.1h-39.6c-3.4,0-6.1-2.7-6.1-6.1v-15.9c0-3.4-2.7-6.1-6.1-6.1h-78.2
		c-3.4,0-6.1,2.7-6.1,6.1v15.9c0,3.4-2.7,6.1-6.1,6.1H54.1c-3.3,0-6.1-2.7-6.1-6.1V99.5c0-3.4,2.7-6.1,6.1-6.1h39.6
		c3.4,0,6.1,2.7,6.1,6.1v54.2c0,3.4,2.7,6.1,6.1,6.1h55.2c2.4,0,4.6,0.9,6.3,2.5l17.3,15.9c2.1,1.9,5.3,0.4,5.3-2.3v-13.6
		C220,170.2,242,197.4,242,229.7z"/>
</g>
<path class="st2" d="M237.9,65.1"/>
<circle class="st2" cx="216.1" cy="60.5" r="25.9"/>
<circle class="st5" cx="126.3" cy="133.3" r="6"/>
<circle class="st5" cx="150" cy="133.3" r="6"/>
<circle class="st5" cx="173.7" cy="133.3" r="6"/>
<path class="st6" d="M249,121.7v82.1c-3.8-9-9.4-17.2-16.5-24.3c-10.2-10.2-22.7-17.2-36.4-20.5v-36.7c0-14.5,11.4-26.7,25.9-26.9
	c7.5-0.1,14.3,2.8,19.2,7.7C246,107.8,249,114.4,249,121.7z"/>
<g>
	<g>
		<path class="st5" d="M248.9,234.3v4c0,3.4-2.8,6.2-6.2,6.2h-40.4c-3.4,0-6.2-2.8-6.2-6.2v-16.2c0-3.4-2.8-6.2-6.2-6.2h-79.8
			c-3.4,0-6.2,2.8-6.2,6.2v16.2c0,3.4-2.8,6.2-6.2,6.2H57.3c-3.4,0-6.2-2.8-6.2-6.2V101.5c0-3.4,2.8-6.2,6.2-6.2h40.4
			c3.4,0,6.2,2.8,6.2,6.2v55.3c0,3.4,2.8,6.2,6.2,6.2h56.4c2.4,0,4.7,0.9,6.5,2.5l17.7,16.2c2.1,1.9,5.4,0.4,5.4-2.4v-13.9
			C226.5,173.6,248.9,201.3,248.9,234.3z"/>
	</g>
</g>
<path class="st5" d="M244.8,66.4"/>
<circle class="st6" cx="222.5" cy="61.7" r="26.4"/>
</svg>
