<svg width="14" height="21" viewBox="0 0 14 21" fill="none" xmlns="http://www.w3.org/2000/svg">
<path d="M3.51743 19.5465L3.51724 19.5467C3.17552 19.8207 2.83699 19.923 2.52725 19.915C2.21355 19.9069 1.89077 19.7844 1.59049 19.5434C0.985014 19.0574 0.5 18.1042 0.5 16.8633V3.55402C0.5 2.30547 0.985439 1.35295 1.58994 0.869133C1.88974 0.629181 2.21222 0.507658 2.52601 0.500353C2.83605 0.493136 3.17509 0.596305 3.51725 0.870616L3.51743 0.870766L7.66664 4.19397L7.66743 4.19461L11.8166 7.53172L11.8172 7.5322C12.5126 8.08967 12.905 9.11423 12.905 10.2087C12.905 11.3031 12.5126 12.3276 11.8172 12.8851L11.8166 12.8856L7.66743 16.2227L7.66664 16.2233L3.51743 19.5465Z" stroke="black"/>
</svg>
