<svg width="14" height="21" viewBox="0 0 14 21" fill="none" xmlns="http://www.w3.org/2000/svg">
<path d="M9.88784 0.868988L9.88803 0.868837C10.2297 0.594875 10.5683 0.492523 10.878 0.5005C11.1917 0.508579 11.5145 0.631092 11.8148 0.872126C12.4203 1.35814 12.9053 2.31133 12.9053 3.55224L12.9053 16.8615C12.9053 18.1101 12.4198 19.0626 11.8153 19.5464C11.5155 19.7863 11.1931 19.9079 10.8793 19.9152C10.5692 19.9224 10.2302 19.8192 9.88803 19.5449L9.88784 19.5448L5.73864 16.2216L5.73784 16.2209L1.58863 12.8838L1.58803 12.8833C0.892687 12.3259 0.500272 11.3013 0.500272 10.2069C0.500272 9.11245 0.892687 8.08789 1.58803 7.53043L1.58863 7.52994L5.73784 4.19283L5.73864 4.19219L9.88784 0.868988Z" stroke="black"/>
</svg>
